STARTFONT 2.1
FONT -FontForge-Futura Md BT-Book-R-Normal--18-170-75-75-P-100-ISO10646-1
SIZE 17 75 75
FONTBOUNDINGBOX 17 18 0 -4
COMMENT "Generated by fontforge, http://fontforge.sourceforge.net"
COMMENT "Copyright 1990-1993 Bitstream Inc.  All rights reserved."
STARTPROPERTIES 39
FOUNDRY "FontForge"
FAMILY_NAME "Futura Md BT"
WEIGHT_NAME "Book"
SLANT "R"
SETWIDTH_NAME "Normal"
ADD_STYLE_NAME ""
PIXEL_SIZE 18
POINT_SIZE 170
RESOLUTION_X 75
RESOLUTION_Y 75
SPACING "P"
AVERAGE_WIDTH 100
CHARSET_REGISTRY "ISO10646"
CHARSET_ENCODING "1"
FONTNAME_REGISTRY ""
CHARSET_COLLECTIONS "ISO10646-1"
FONT_NAME "FuturaBT-Medium"
FACE_NAME "Futura Medium BT"
COPYRIGHT "Copyright 1990-1993 Bitstream Inc.  All rights reserved."
FONT_VERSION "mfgpctt-v1.52 Tuesday, January 12, 1993 3:32:04 pm (EST)"
FONT_ASCENT 14
FONT_DESCENT 4
UNDERLINE_POSITION -3
UNDERLINE_THICKNESS 2
X_HEIGHT 7
CAP_HEIGHT 12
RAW_ASCENT 799
RAW_DESCENT 200
RELATIVE_WEIGHT 40
RELATIVE_SETWIDTH 50
SUPERSCRIPT_X 0
SUPERSCRIPT_Y 5
SUPERSCRIPT_SIZE 10
SUBSCRIPT_X 0
SUBSCRIPT_Y -3
SUBSCRIPT_SIZE 10
FIGURE_WIDTH 11
AVG_LOWERCASE_WIDTH 90
AVG_UPPERCASE_WIDTH 114
ENDPROPERTIES
CHARS 96
STARTCHAR exclam
ENCODING 33
SWIDTH 329 0
DWIDTH 6 0
BBX 2 13 2 0
BITMAP
C0
C0
C0
C0
C0
C0
C0
C0
C0
C0
00
C0
C0
ENDCHAR
STARTCHAR quotedbl
ENCODING 34
SWIDTH 313 0
DWIDTH 6 0
BBX 3 5 1 8
BITMAP
A0
A0
A0
A0
A0
ENDCHAR
STARTCHAR numbersign
ENCODING 35
SWIDTH 769 0
DWIDTH 14 0
BBX 13 13 1 0
BITMAP
0330
0220
0660
0660
3FF8
7FF8
0CC0
1980
FFF0
FFE0
3300
3300
6600
ENDCHAR
STARTCHAR dollar
ENCODING 36
SWIDTH 604 0
DWIDTH 11 0
BBX 8 15 2 -1
BITMAP
10
3C
7E
D7
D0
D0
70
3C
1E
13
93
D7
FE
7C
10
ENDCHAR
STARTCHAR percent
ENCODING 37
SWIDTH 791 0
DWIDTH 14 0
BBX 13 13 1 0
BITMAP
7840
CC40
CC80
CC80
CD00
CD00
7AF0
0598
0598
0998
0998
1198
10F0
ENDCHAR
STARTCHAR ampersand
ENCODING 38
SWIDTH 670 0
DWIDTH 12 0
BBX 11 13 1 0
BITMAP
3C00
6600
6600
6600
7C00
3800
3800
6C40
C6C0
C380
E780
7FC0
3CE0
ENDCHAR
STARTCHAR quotesingle
ENCODING 39
SWIDTH 163 0
DWIDTH 3 0
BBX 1 5 1 8
BITMAP
80
80
80
80
80
ENDCHAR
STARTCHAR parenleft
ENCODING 40
SWIDTH 303 0
DWIDTH 5 0
BBX 4 17 1 -4
BITMAP
30
20
60
60
C0
C0
C0
C0
C0
C0
C0
C0
C0
60
60
20
30
ENDCHAR
STARTCHAR parenright
ENCODING 41
SWIDTH 303 0
DWIDTH 5 0
BBX 4 17 0 -4
BITMAP
C0
40
60
60
30
30
30
30
30
30
30
30
30
60
60
40
C0
ENDCHAR
STARTCHAR asterisk
ENCODING 42
SWIDTH 439 0
DWIDTH 8 0
BBX 5 6 1 7
BITMAP
20
A8
70
70
A8
20
ENDCHAR
STARTCHAR plus
ENCODING 43
SWIDTH 833 0
DWIDTH 15 0
BBX 11 11 2 0
BITMAP
0400
0400
0400
0400
0400
FFE0
0400
0400
0400
0400
0400
ENDCHAR
STARTCHAR comma
ENCODING 44
SWIDTH 301 0
DWIDTH 5 0
BBX 3 5 1 -3
BITMAP
60
60
40
C0
80
ENDCHAR
STARTCHAR hyphen
ENCODING 45
SWIDTH 404 0
DWIDTH 7 0
BBX 5 2 1 3
BITMAP
F8
F8
ENDCHAR
STARTCHAR period
ENCODING 46
SWIDTH 301 0
DWIDTH 5 0
BBX 2 2 2 0
BITMAP
C0
C0
ENDCHAR
STARTCHAR slash
ENCODING 47
SWIDTH 433 0
DWIDTH 8 0
BBX 8 15 0 -2
BITMAP
03
02
06
04
04
0C
08
18
10
30
20
20
60
40
C0
ENDCHAR
STARTCHAR zero
ENCODING 48
SWIDTH 604 0
DWIDTH 11 0
BBX 9 13 1 0
BITMAP
3E00
7F00
6300
C180
C180
C180
C180
C180
C180
C180
6300
7F00
3E00
ENDCHAR
STARTCHAR one
ENCODING 49
SWIDTH 604 0
DWIDTH 11 0
BBX 5 13 2 0
BITMAP
78
F8
18
18
18
18
18
18
18
18
18
18
18
ENDCHAR
STARTCHAR two
ENCODING 50
SWIDTH 604 0
DWIDTH 11 0
BBX 8 13 1 0
BITMAP
3C
7E
E7
C3
03
03
06
0C
1C
38
30
7F
FF
ENDCHAR
STARTCHAR three
ENCODING 51
SWIDTH 604 0
DWIDTH 11 0
BBX 9 13 1 0
BITMAP
3E00
7F00
6180
0180
0380
0F00
0F00
0380
0180
C180
E380
7F00
3E00
ENDCHAR
STARTCHAR four
ENCODING 52
SWIDTH 604 0
DWIDTH 11 0
BBX 10 13 0 0
BITMAP
0100
0300
0300
0700
0F00
1B00
1300
2300
7FC0
FFC0
0300
0300
0300
ENDCHAR
STARTCHAR five
ENCODING 53
SWIDTH 604 0
DWIDTH 11 0
BBX 9 13 1 0
BITMAP
3F00
3F00
2000
2000
7E00
7F00
4380
0180
0180
0180
C380
FF00
3C00
ENDCHAR
STARTCHAR six
ENCODING 54
SWIDTH 604 0
DWIDTH 11 0
BBX 9 13 1 0
BITMAP
0600
0C00
1800
3000
3E00
7F00
6380
C180
C180
C180
E380
7F00
3E00
ENDCHAR
STARTCHAR seven
ENCODING 55
SWIDTH 604 0
DWIDTH 11 0
BBX 9 13 1 0
BITMAP
FF80
FF00
0300
0600
0600
0C00
0C00
1800
1800
3000
3000
6000
6000
ENDCHAR
STARTCHAR eight
ENCODING 56
SWIDTH 604 0
DWIDTH 11 0
BBX 9 13 1 0
BITMAP
3E00
7F00
E380
C180
C180
7F00
7F00
E380
C180
C180
E380
7F00
3E00
ENDCHAR
STARTCHAR nine
ENCODING 57
SWIDTH 604 0
DWIDTH 11 0
BBX 9 13 1 0
BITMAP
3E00
7F00
E380
C180
C180
C180
E300
7F00
3E00
0600
0C00
1800
3000
ENDCHAR
STARTCHAR colon
ENCODING 58
SWIDTH 329 0
DWIDTH 6 0
BBX 2 8 2 0
BITMAP
C0
C0
00
00
00
00
C0
C0
ENDCHAR
STARTCHAR semicolon
ENCODING 59
SWIDTH 329 0
DWIDTH 6 0
BBX 3 11 1 -3
BITMAP
60
60
00
00
00
00
60
60
40
C0
80
ENDCHAR
STARTCHAR less
ENCODING 60
SWIDTH 833 0
DWIDTH 15 0
BBX 10 10 2 0
BITMAP
0040
01C0
0F00
3C00
E000
E000
3C00
0F00
03C0
0040
ENDCHAR
STARTCHAR equal
ENCODING 61
SWIDTH 833 0
DWIDTH 15 0
BBX 11 4 2 3
BITMAP
FFE0
0000
0000
FFE0
ENDCHAR
STARTCHAR greater
ENCODING 62
SWIDTH 833 0
DWIDTH 15 0
BBX 10 10 2 0
BITMAP
8000
E000
3C00
0F00
01C0
01C0
0F00
3C00
F000
8000
ENDCHAR
STARTCHAR question
ENCODING 63
SWIDTH 543 0
DWIDTH 10 0
BBX 6 13 2 0
BITMAP
78
CC
CC
0C
1C
70
E0
CC
CC
78
00
30
30
ENDCHAR
STARTCHAR at
ENCODING 64
SWIDTH 1000 0
DWIDTH 18 0
BBX 16 16 1 -3
BITMAP
03F0
0C0C
3006
2002
43D1
4631
8631
8C31
8C21
8C22
8C66
47B8
4000
2004
181C
07F0
ENDCHAR
STARTCHAR A
ENCODING 65
SWIDTH 662 0
DWIDTH 12 0
BBX 12 13 0 0
BITMAP
0400
0600
0600
0F00
0F00
1900
1980
3180
3FC0
3FC0
6060
6060
C030
ENDCHAR
STARTCHAR B
ENCODING 66
SWIDTH 576 0
DWIDTH 10 0
BBX 8 13 1 0
BITMAP
FC
FE
C6
C6
C6
FC
FE
C7
C3
C3
C7
FE
FC
ENDCHAR
STARTCHAR C
ENCODING 67
SWIDTH 717 0
DWIDTH 13 0
BBX 11 13 1 0
BITMAP
0FC0
3FE0
7060
6000
C000
C000
C000
C000
C000
6020
7060
3FE0
0FC0
ENDCHAR
STARTCHAR D
ENCODING 68
SWIDTH 740 0
DWIDTH 13 0
BBX 11 13 1 0
BITMAP
FE00
FF80
C1C0
C0C0
C060
C060
C060
C060
C060
C0C0
C1C0
FF80
FE00
ENDCHAR
STARTCHAR E
ENCODING 69
SWIDTH 532 0
DWIDTH 10 0
BBX 7 13 1 0
BITMAP
FE
FE
C0
C0
C0
FE
FE
C0
C0
C0
C0
FE
FE
ENDCHAR
STARTCHAR F
ENCODING 70
SWIDTH 524 0
DWIDTH 9 0
BBX 7 13 1 0
BITMAP
FE
FE
C0
C0
C0
FE
FE
C0
C0
C0
C0
C0
C0
ENDCHAR
STARTCHAR G
ENCODING 71
SWIDTH 803 0
DWIDTH 14 0
BBX 13 13 1 0
BITMAP
0FC0
3FE0
7830
6000
C000
C000
C0F8
C0F8
C018
6018
7870
3FE0
0FC0
ENDCHAR
STARTCHAR H
ENCODING 72
SWIDTH 748 0
DWIDTH 13 0
BBX 11 13 1 0
BITMAP
C060
C060
C060
C060
C060
FFE0
FFE0
C060
C060
C060
C060
C060
C060
ENDCHAR
STARTCHAR I
ENCODING 73
SWIDTH 285 0
DWIDTH 5 0
BBX 2 13 1 0
BITMAP
C0
C0
C0
C0
C0
C0
C0
C0
C0
C0
C0
C0
C0
ENDCHAR
STARTCHAR J
ENCODING 74
SWIDTH 394 0
DWIDTH 7 0
BBX 6 13 0 0
BITMAP
0C
0C
0C
0C
0C
0C
0C
0C
0C
0C
4C
FC
78
ENDCHAR
STARTCHAR K
ENCODING 75
SWIDTH 620 0
DWIDTH 11 0
BBX 10 13 1 0
BITMAP
C380
C700
C600
CC00
D800
F000
F800
DC00
CC00
CE00
C700
C380
C1C0
ENDCHAR
STARTCHAR L
ENCODING 76
SWIDTH 470 0
DWIDTH 8 0
BBX 7 13 1 0
BITMAP
C0
C0
C0
C0
C0
C0
C0
C0
C0
C0
C0
FE
FE
ENDCHAR
STARTCHAR M
ENCODING 77
SWIDTH 862 0
DWIDTH 16 0
BBX 15 13 0 0
BITMAP
2010
1010
3018
3838
3838
2C78
2C68
66CC
66CC
628C
4384
C106
C106
ENDCHAR
STARTCHAR N
ENCODING 78
SWIDTH 803 0
DWIDTH 14 0
BBX 12 13 1 0
BITMAP
8030
C030
E030
F030
F830
DC30
C630
C3B0
C1F0
C0F0
C070
C030
C010
ENDCHAR
STARTCHAR O
ENCODING 79
SWIDTH 866 0
DWIDTH 16 0
BBX 14 13 1 0
BITMAP
0FC0
1FE0
7878
6018
E01C
C00C
C00C
C00C
E01C
6018
7878
1FE0
0FC0
ENDCHAR
STARTCHAR P
ENCODING 80
SWIDTH 532 0
DWIDTH 10 0
BBX 8 13 1 0
BITMAP
FC
FE
C3
C3
C3
FE
FC
C0
C0
C0
C0
C0
C0
ENDCHAR
STARTCHAR Q
ENCODING 81
SWIDTH 866 0
DWIDTH 16 0
BBX 15 14 1 -1
BITMAP
0FC0
1FF0
7878
6018
E01C
C00C
C00C
C00C
C1CC
60F8
7878
1FF8
0FDC
000E
ENDCHAR
STARTCHAR R
ENCODING 82
SWIDTH 560 0
DWIDTH 10 0
BBX 8 13 1 0
BITMAP
FC
FE
C6
C6
C6
FE
FC
D8
CC
CC
C6
C6
C3
ENDCHAR
STARTCHAR S
ENCODING 83
SWIDTH 548 0
DWIDTH 10 0
BBX 8 13 1 0
BITMAP
3C
7E
C3
C0
E0
78
1E
07
03
83
C7
FE
7C
ENDCHAR
STARTCHAR T
ENCODING 84
SWIDTH 508 0
DWIDTH 9 0
BBX 8 13 1 0
BITMAP
FF
FF
18
18
18
18
18
18
18
18
18
18
18
ENDCHAR
STARTCHAR U
ENCODING 85
SWIDTH 744 0
DWIDTH 13 0
BBX 11 13 1 0
BITMAP
C060
C060
C060
C060
C060
C060
C060
C060
C060
C060
60C0
7FC0
1F00
ENDCHAR
STARTCHAR V
ENCODING 86
SWIDTH 618 0
DWIDTH 11 0
BBX 11 13 0 0
BITMAP
C060
60C0
60C0
6180
3180
3180
1B00
1B00
0A00
0E00
0C00
0400
0400
ENDCHAR
STARTCHAR W
ENCODING 87
SWIDTH 938 0
DWIDTH 17 0
BBX 17 13 0 0
BITMAP
C08180
608300
618300
61C300
31C600
336600
336600
1E2C00
1E3C00
0C1800
0C1800
0C1800
081000
ENDCHAR
STARTCHAR X
ENCODING 88
SWIDTH 571 0
DWIDTH 10 0
BBX 10 13 0 0
BITMAP
E1C0
6180
3300
3300
1E00
1C00
0C00
1E00
1E00
3300
6380
6180
C1C0
ENDCHAR
STARTCHAR Y
ENCODING 89
SWIDTH 592 0
DWIDTH 11 0
BBX 10 13 0 0
BITMAP
C0C0
6180
6180
3300
1E00
1E00
0C00
0C00
0C00
0C00
0C00
0C00
0C00
ENDCHAR
STARTCHAR Z
ENCODING 90
SWIDTH 576 0
DWIDTH 10 0
BBX 10 13 0 0
BITMAP
7FC0
7F80
0300
0300
0600
0600
0C00
1800
1800
3000
3000
7FC0
FFC0
ENDCHAR
STARTCHAR bracketleft
ENCODING 91
SWIDTH 303 0
DWIDTH 5 0
BBX 3 17 2 -4
BITMAP
E0
C0
C0
C0
C0
C0
C0
C0
C0
C0
C0
C0
C0
C0
C0
C0
E0
ENDCHAR
STARTCHAR backslash
ENCODING 92
SWIDTH 433 0
DWIDTH 8 0
BBX 8 15 0 -2
BITMAP
C0
40
60
20
20
30
10
18
08
0C
04
04
06
02
03
ENDCHAR
STARTCHAR bracketright
ENCODING 93
SWIDTH 303 0
DWIDTH 5 0
BBX 3 17 0 -4
BITMAP
E0
60
60
60
60
60
60
60
60
60
60
60
60
60
60
60
E0
ENDCHAR
STARTCHAR asciicircum
ENCODING 94
SWIDTH 1000 0
DWIDTH 18 0
BBX 11 5 4 8
BITMAP
0E00
1B00
3180
60C0
C060
ENDCHAR
STARTCHAR underscore
ENCODING 95
SWIDTH 500 0
DWIDTH 9 0
BBX 9 1 0 -4
BITMAP
FF80
ENDCHAR
STARTCHAR grave
ENCODING 96
SWIDTH 500 0
DWIDTH 9 0
BBX 4 2 2 10
BITMAP
E0
30
ENDCHAR
STARTCHAR a
ENCODING 97
SWIDTH 582 0
DWIDTH 10 0
BBX 8 8 1 0
BITMAP
3F
67
C3
C3
C3
C3
67
3F
ENDCHAR
STARTCHAR b
ENCODING 98
SWIDTH 582 0
DWIDTH 10 0
BBX 8 13 1 0
BITMAP
C0
C0
C0
C0
C0
FC
E6
C3
C3
C3
C3
E6
FC
ENDCHAR
STARTCHAR c
ENCODING 99
SWIDTH 454 0
DWIDTH 8 0
BBX 7 8 1 0
BITMAP
3C
62
C2
C0
C0
C0
62
3C
ENDCHAR
STARTCHAR d
ENCODING 100
SWIDTH 582 0
DWIDTH 10 0
BBX 8 13 1 0
BITMAP
03
03
03
03
03
3F
67
C3
C3
C3
C3
67
3F
ENDCHAR
STARTCHAR e
ENCODING 101
SWIDTH 556 0
DWIDTH 10 0
BBX 9 8 1 0
BITMAP
3E00
6300
C180
FF80
C000
C100
6380
3E00
ENDCHAR
STARTCHAR f
ENCODING 102
SWIDTH 306 0
DWIDTH 6 0
BBX 6 13 0 0
BITMAP
1C
30
30
30
30
FC
30
30
30
30
30
30
30
ENDCHAR
STARTCHAR g
ENCODING 103
SWIDTH 582 0
DWIDTH 10 0
BBX 8 12 1 -4
BITMAP
3F
67
C3
C3
C3
C3
67
3F
03
C3
66
3C
ENDCHAR
STARTCHAR h
ENCODING 104
SWIDTH 587 0
DWIDTH 11 0
BBX 8 13 1 0
BITMAP
C0
C0
C0
C0
C0
DE
E3
C3
C3
C3
C3
C3
C3
ENDCHAR
STARTCHAR i
ENCODING 105
SWIDTH 262 0
DWIDTH 5 0
BBX 2 12 1 0
BITMAP
C0
C0
00
00
C0
C0
C0
C0
C0
C0
C0
C0
ENDCHAR
STARTCHAR j
ENCODING 106
SWIDTH 262 0
DWIDTH 5 0
BBX 2 16 1 -4
BITMAP
C0
C0
00
00
C0
C0
C0
C0
C0
C0
C0
C0
C0
C0
C0
C0
ENDCHAR
STARTCHAR k
ENCODING 107
SWIDTH 516 0
DWIDTH 9 0
BBX 8 13 1 0
BITMAP
C0
C0
C0
C0
C0
C7
CC
D8
F0
D8
DC
CE
C7
ENDCHAR
STARTCHAR l
ENCODING 108
SWIDTH 262 0
DWIDTH 5 0
BBX 2 13 1 0
BITMAP
C0
C0
C0
C0
C0
C0
C0
C0
C0
C0
C0
C0
C0
ENDCHAR
STARTCHAR m
ENCODING 109
SWIDTH 875 0
DWIDTH 16 0
BBX 14 8 1 0
BITMAP
DE78
E38C
C30C
C30C
C30C
C30C
C30C
C30C
ENDCHAR
STARTCHAR n
ENCODING 110
SWIDTH 587 0
DWIDTH 11 0
BBX 8 8 1 0
BITMAP
DE
E3
C3
C3
C3
C3
C3
C3
ENDCHAR
STARTCHAR o
ENCODING 111
SWIDTH 587 0
DWIDTH 11 0
BBX 9 8 1 0
BITMAP
3E00
6300
C180
C180
C180
C180
6300
3E00
ENDCHAR
STARTCHAR p
ENCODING 112
SWIDTH 582 0
DWIDTH 10 0
BBX 8 12 1 -4
BITMAP
FC
E6
C3
C3
C3
C3
E6
FC
C0
C0
C0
C0
ENDCHAR
STARTCHAR q
ENCODING 113
SWIDTH 582 0
DWIDTH 10 0
BBX 8 12 1 -4
BITMAP
3F
67
C3
C3
C3
C3
67
3F
03
03
03
03
ENDCHAR
STARTCHAR r
ENCODING 114
SWIDTH 368 0
DWIDTH 7 0
BBX 6 8 1 0
BITMAP
FC
E0
C0
C0
C0
C0
C0
C0
ENDCHAR
STARTCHAR s
ENCODING 115
SWIDTH 425 0
DWIDTH 8 0
BBX 7 8 0 0
BITMAP
3C
66
60
3C
0E
46
E6
7C
ENDCHAR
STARTCHAR t
ENCODING 116
SWIDTH 303 0
DWIDTH 5 0
BBX 4 11 1 0
BITMAP
60
60
60
F0
60
60
60
60
60
60
60
ENDCHAR
STARTCHAR u
ENCODING 117
SWIDTH 587 0
DWIDTH 11 0
BBX 8 8 1 0
BITMAP
C3
C3
C3
C3
C3
C3
C2
3C
ENDCHAR
STARTCHAR v
ENCODING 118
SWIDTH 472 0
DWIDTH 9 0
BBX 9 8 0 0
BITMAP
C180
6300
6300
3600
3400
1C00
0800
0800
ENDCHAR
STARTCHAR w
ENCODING 119
SWIDTH 750 0
DWIDTH 14 0
BBX 14 8 0 0
BITMAP
C20C
6318
6318
37B0
34A0
1CE0
0840
0840
ENDCHAR
STARTCHAR x
ENCODING 120
SWIDTH 453 0
DWIDTH 8 0
BBX 9 8 0 0
BITMAP
E380
7700
3600
1C00
1C00
3600
6300
E380
ENDCHAR
STARTCHAR y
ENCODING 121
SWIDTH 471 0
DWIDTH 8 0
BBX 9 12 0 -4
BITMAP
C180
6300
6300
7600
3600
3C00
1C00
1800
1800
3000
3000
6000
ENDCHAR
STARTCHAR z
ENCODING 122
SWIDTH 449 0
DWIDTH 8 0
BBX 8 8 0 0
BITMAP
FF
0E
0C
1C
38
30
70
FF
ENDCHAR
STARTCHAR braceleft
ENCODING 123
SWIDTH 500 0
DWIDTH 9 0
BBX 6 17 2 -4
BITMAP
1C
3C
30
30
30
30
30
E0
E0
30
30
30
30
30
30
3C
1C
ENDCHAR
STARTCHAR bar
ENCODING 124
SWIDTH 500 0
DWIDTH 9 0
BBX 2 18 4 -4
BITMAP
C0
C0
C0
C0
C0
C0
C0
C0
C0
C0
C0
C0
C0
C0
C0
C0
C0
C0
ENDCHAR
STARTCHAR braceright
ENCODING 125
SWIDTH 500 0
DWIDTH 9 0
BBX 6 17 1 -4
BITMAP
E0
F0
30
30
30
30
30
1C
1C
30
30
30
30
30
30
F0
E0
ENDCHAR
STARTCHAR asciitilde
ENCODING 126
SWIDTH 833 0
DWIDTH 15 0
BBX 11 2 2 4
BITMAP
7C20
83C0
ENDCHAR
STARTCHAR nonbreakingspace
ENCODING 160
SWIDTH 604 0
DWIDTH 11 0
BBX 1 1 0 0
BITMAP
00
ENDCHAR
STARTCHAR degree
ENCODING 176
SWIDTH 329 0
DWIDTH 6 0
BBX 5 5 0 8
BITMAP
70
88
88
88
70
ENDCHAR
ENDFONT
